<?xml version="1.0" standalone="no"?>
<!DOCTYPE svg PUBLIC "-//W3C//DTD SVG 20010904//EN"
 "http://www.w3.org/TR/2001/REC-SVG-20010904/DTD/svg10.dtd">
<svg version="1.0" xmlns="http://www.w3.org/2000/svg"
 width="500.000000pt" height="500.000000pt" viewBox="0 0 500.000000 500.000000"
 preserveAspectRatio="xMidYMid meet">
<metadata>
Created by potrace 1.14, written by Peter Selinger 2001-2017
</metadata>
<g transform="translate(0.000000,500.000000) scale(0.100000,-0.100000)"
fill="#000000" stroke="none">
<path d="M1736 3989 c-129 -19 -291 -104 -393 -208 -119 -120 -188 -251 -228
-430 l-25 -114 0 -1134 0 -1133 577 2 578 3 2 35 c12 189 15 507 4 558 -32
148 -42 187 -57 216 -9 17 -26 55 -39 84 l-24 52 265 0 264 0 0 -476 0 -477
253 6 c179 4 274 10 327 22 85 19 205 72 265 118 55 42 143 136 162 172 8 17
22 37 30 46 28 33 84 187 110 304 l27 120 3 1123 4 1122 -592 0 -592 0 7 -274
c8 -339 24 -429 105 -594 17 -34 31 -64 31 -67 0 -3 -122 -5 -270 -5 l-270 0
0 448 c0 246 0 457 0 470 l0 22 -232 -1 c-128 -1 -259 -5 -292 -10z m196 -781
l3 -473 510 -6 c553 -6 536 -4 660 -66 111 -56 184 -117 271 -225 113 -140
140 -246 131 -513 -7 -185 -20 -262 -63 -370 -57 -144 -194 -239 -364 -252
l-79 -6 -7 38 c-3 20 -4 230 -2 466 3 244 1 432 -4 437 -5 5 -155 7 -346 4
-537 -7 -720 13 -857 96 -147 88 -240 185 -308 319 -49 95 -57 147 -57 357 0
303 34 417 160 536 53 51 83 71 133 89 64 22 137 38 189 40 l28 1 2 -472z
m1578 92 c0 -297 -3 -380 -12 -380 -52 1 -205 91 -284 166 -155 149 -213 287
-214 511 l0 82 255 1 255 1 0 -381z m-2025 -1253 c67 -23 174 -96 245 -167 94
-94 102 -104 145 -191 42 -85 57 -170 53 -294 l-3 -90 -252 -3 -253 -2 0 386
c0 364 1 386 18 379 9 -4 31 -12 47 -18z"/>
</g>
</svg>
