<?xml version="1.0" standalone="no"?>
<!DOCTYPE svg PUBLIC "-//W3C//DTD SVG 20010904//EN"
 "http://www.w3.org/TR/2001/REC-SVG-20010904/DTD/svg10.dtd">
<svg version="1.0" xmlns="http://www.w3.org/2000/svg"
 width="943.000000pt" height="943.000000pt" viewBox="0 0 943.000000 943.000000"
 preserveAspectRatio="xMidYMid meet">
<metadata>
Created by potrace 1.14, written by Peter Selinger 2001-2017
</metadata>
<g transform="translate(0.000000,943.000000) scale(0.100000,-0.100000)"
fill="#000000" stroke="none">
<path d="M4375 9419 c-1351 -96 -2611 -784 -3430 -1874 -811 -1080 -1118
-2441 -850 -3770 137 -682 426 -1326 849 -1890 301 -403 719 -800 1142 -1086
760 -513 1699 -799 2624 -799 1028 0 2013 328 2835 944 403 301 800 719 1086
1142 513 760 799 1699 799 2624 0 1057 -348 2071 -994 2899 -901 1157 -2285
1830 -3741 1820 -110 -1 -254 -6 -320 -10z m-1225 -3885 c4 -1350 7 -1529 20
-1529 8 1 357 344 775 763 l761 762 779 0 779 -1 766 766 c421 421 771 765
778 765 9 0 12 -315 13 -1532 1 -843 1 -1540 0 -1548 -3 -21 -1523 -1541
-1539 -1538 -10 2 -12 303 -12 1524 0 1271 -2 1523 -13 1527 -9 3 -306 -287
-778 -759 l-764 -764 -780 0 -779 0 -771 -770 c-424 -424 -774 -768 -778 -764
-4 4 -7 703 -7 1553 l0 1546 763 766 c419 421 767 765 772 764 7 -1 12 -523
15 -1531z"/>
</g>
</svg>
